<svg xmlns="http://www.w3.org/2000/svg" viewBox="0 0 32 32">
  <defs>
    <linearGradient id="grad" x1="0%" y1="0%" x2="100%" y2="100%">
      <stop offset="0%" style="stop-color:#122D6A"/>
      <stop offset="100%" style="stop-color:#1A3A7F"/>
    </linearGradient>
  </defs>
  <rect width="32" height="32" rx="6" fill="url(#grad)"/>
  <g transform="translate(4, 3) scale(0.13)">
    <path d="M60 30 C30 30 20 60 20 90 C20 120 35 150 60 160 C70 165 80 165 90 160" fill="none" stroke="white" stroke-width="12" stroke-linecap="round"/>
    <path d="M140 30 C170 30 180 60 180 90 C180 120 165 150 140 160 C130 165 120 165 110 160" fill="none" stroke="white" stroke-width="12" stroke-linecap="round"/>
    <path d="M90 40 L110 40 M90 80 L110 80 M90 120 L110 120" fill="none" stroke="white" stroke-width="10" stroke-linecap="round"/>
  </g>
  <circle cx="25" cy="25" r="7" fill="#10B981"/>
  <path d="M21 25 L24 28 L30 22" fill="none" stroke="white" stroke-width="2" stroke-linecap="round" stroke-linejoin="round"/>
</svg>
