<svg xmlns="http://www.w3.org/2000/svg" viewBox="0 0 32 32">
  <rect width="32" height="32" rx="7" fill="#3B6BC4"/>
  <g transform="translate(16, 16)" fill="white">
    <!-- Left hemisphere -->
    <path d="M-2.5,-7 C-6,-7 -8,-4.5 -8,-1.5 C-8,0.5 -7,2 -5.5,3 C-7,3.5 -8,5 -7.5,6.5 C-3.5,6.5 -1.5,5 -1,3 C-1,1 -1,-1 -1.5,-3 C-2,-5 -2.5,-6 -2.5,-7Z" opacity="0.95"/>
    <!-- Right hemisphere -->
    <path d="M2.5,-7 C6,-7 8,-4.5 8,-1.5 C8,0.5 7,2 5.5,3 C7,3.5 8,5 7.5,6.5 C3.5,6.5 1.5,5 1,3 C1,1 1,-1 1.5,-3 C2,-5 2.5,-6 2.5,-7Z" opacity="0.95"/>
  </g>
</svg>
