<svg xmlns="http://www.w3.org/2000/svg" viewBox="0 0 32 32">
  <defs>
    <linearGradient id="grad" x1="0%" y1="0%" x2="100%" y2="100%">
      <stop offset="0%" style="stop-color:#0D1F4D"/>
      <stop offset="100%" style="stop-color:#1A3A7F"/>
    </linearGradient>
  </defs>
  <rect width="32" height="32" rx="7" fill="url(#grad)"/>
  
  <!-- Brain simplified -->
  <g transform="translate(16, 11)">
    <!-- Left hemisphere -->
    <path d="M-1 -6 C-1 -6 -7 -7 -8.5 -4 C-10 -1 -9 2 -7.5 3.5 C-9 4 -10 6 -8.5 8.5 C-7 11 -4 11 -2.5 10.5 C-2 12 -1 13 1 13 L-1 13 Z"
          fill="white" opacity="0.95"/>
    <!-- Right hemisphere -->
    <path d="M1 -6 C1 -6 7 -7 8.5 -4 C10 -1 9 2 7.5 3.5 C9 4 10 6 8.5 8.5 C7 11 4 11 2.5 10.5 C2 12 1 13 -1 13 L1 13 Z"
          fill="white" opacity="0.95"/>
    <!-- Center line -->
    <line x1="0" y1="-5.5" x2="0" y2="13" stroke="#122D6A" stroke-width="0.8" opacity="0.3"/>
    <!-- Neural dots -->
    <circle cx="-5" cy="0" r="0.7" fill="#7BC4FF" opacity="0.8"/>
    <circle cx="5" cy="0" r="0.7" fill="#7BC4FF" opacity="0.8"/>
  </g>
  
  <!-- IA text -->
  <text x="16" y="29" text-anchor="middle" font-family="Arial, sans-serif" font-size="5" font-weight="800" letter-spacing="-0.2">
    <tspan fill="#7BC4FF">IA</tspan>
  </text>
</svg>
