<svg xmlns="http://www.w3.org/2000/svg" viewBox="0 0 32 32">
  <rect width="32" height="32" rx="7" fill="#122D6A"/>
  <g transform="translate(16, 12)" fill="none">
    <path d="M-0.5 -7 C-3 -7.2 -6.5 -6.5 -7.5 -3.5 C-8.5 -0.5 -7.5 2 -6.5 3.5 C-8 5 -8.5 7.5 -7 9.5 C-5.5 11.5 -3 11.2 -1.5 10.5 C-1 12 0 12.5 1 12.5" fill="white" fill-opacity="0.95" stroke="none"/>
    <path d="M0.5 -7 C3 -7.2 6.5 -6.5 7.5 -3.5 C8.5 -0.5 7.5 2 6.5 3.5 C8 5 8.5 7.5 7 9.5 C5.5 11.5 3 11.2 1.5 10.5 C1 12 0 12.5 -1 12.5" fill="white" fill-opacity="0.95" stroke="none"/>
    <line x1="0" y1="-6.5" x2="0" y2="12.5" stroke="#122D6A" stroke-width="0.7" opacity="0.3"/>
    <path d="M-1.5 -2 C-4 -1.5 -5.5 0 -6 1.5" stroke="#7BC4FF" stroke-width="0.8" fill="none" opacity="0.6"/>
    <path d="M-1 3.5 C-3.5 4.5 -5 6.5 -4.5 8.5" stroke="#7BC4FF" stroke-width="0.8" fill="none" opacity="0.6"/>
    <path d="M1.5 -2 C4 -1.5 5.5 0 6 1.5" stroke="#7BC4FF" stroke-width="0.8" fill="none" opacity="0.6"/>
    <path d="M1 3.5 C3.5 4.5 5 6.5 4.5 8.5" stroke="#7BC4FF" stroke-width="0.8" fill="none" opacity="0.6"/>
  </g>
</svg>
